<svg width="158" height="48" viewBox="0 0 158 48" fill="none" xmlns="http://www.w3.org/2000/svg">
<path d="M18.3483 29.1178C18.3483 22.8263 23.47 17.7125 29.7535 17.7125C31.4608 17.7125 33.081 18.0999 34.5353 18.7795V12.733H25.8174C25.4697 12.733 25.1298 12.5907 24.8689 12.3457C24.6239 12.1007 24.4816 11.7608 24.4816 11.3972V2.6636H4.00274C3.2677 2.6636 2.66702 3.25633 2.66702 3.99932V43.9927C2.66702 44.7278 3.25975 45.3284 4.00274 45.3284H33.2153C33.9503 45.3284 34.551 44.7357 34.551 43.9927V39.4559C33.0967 40.1357 31.4843 40.5229 29.7692 40.5229C23.47 40.5229 18.3483 35.4013 18.3483 29.1178Z" fill="white"/>
<path d="M27.1531 4.55255V10.0616H32.662L27.1531 4.55255Z" fill="#FFC10D"/>
<path d="M29.7614 20.3682C24.9401 20.3682 21.0197 24.2885 21.0197 29.1098C21.0197 33.9311 24.9479 37.8435 29.7614 37.8435C34.5749 37.8435 38.503 33.9232 38.503 29.1019C38.503 24.2806 34.5828 20.3682 29.7614 20.3682Z" fill="white"/>
<path d="M29.7614 35.1879C26.4102 35.1879 23.6833 32.469 23.6833 29.1098C23.6833 25.7507 26.4022 23.0318 29.7614 23.0318C33.1205 23.0318 35.8394 25.7507 35.8394 29.1098C35.8394 32.461 33.1048 35.1879 29.7614 35.1879Z" fill="#56ACE0"/>
<path d="M7.06945 20.384H18.1348C18.8699 20.384 19.4705 19.7912 19.4705 19.0482C19.4705 18.3132 18.8778 17.7125 18.1348 17.7125H7.06945C6.33441 17.7125 5.73373 18.3053 5.73373 19.0482C5.73373 19.7833 6.33441 20.384 7.06945 20.384Z" fill="#6C584C"/>
<path d="M7.06945 27.2445H15.2262C15.9612 27.2445 16.5619 26.6518 16.5619 25.9088C16.5619 25.1737 15.9692 24.573 15.2262 24.573H7.06945C6.33441 24.573 5.73373 25.1658 5.73373 25.9088C5.73373 26.6518 6.33441 27.2445 7.06945 27.2445Z" fill="#6C584C"/>
<path d="M7.06945 34.1051H15.2262C15.9612 34.1051 16.5619 33.5123 16.5619 32.7694C16.5619 32.0265 15.9692 31.4337 15.2262 31.4337H7.06945C6.33441 31.4337 5.73373 32.0265 5.73373 32.7694C5.73373 33.5123 6.33441 34.1051 7.06945 34.1051Z" fill="#6C584C"/>
<path d="M18.1348 38.302H7.06945C6.33441 38.302 5.73373 38.8947 5.73373 39.6377C5.73373 40.3728 6.32646 40.9735 7.06945 40.9735H18.1348C18.8699 40.9735 19.4705 40.3807 19.4705 39.6377C19.4627 38.8947 18.8699 38.302 18.1348 38.302Z" fill="#6C584C"/>
<path d="M5.67837 6.52063H7.47257V9.7612C7.47257 10.6701 6.9746 10.7729 6.78497 10.7729C6.38982 10.7729 6.01044 10.5437 5.63888 10.1011L4.94333 11.2077C5.48079 11.8478 6.12096 12.172 6.84023 12.172C7.42513 12.172 8.83201 11.9349 8.83201 9.70593V5.20068H5.67837V6.52063Z" fill="#FFC10D"/>
<path d="M21.0119 8.5124C21.1146 8.45702 21.8971 8.17251 21.8971 7.0186C21.8971 5.18491 20.1661 5.18491 19.763 5.18491H17.4077V12.0929H20.0556C20.8855 12.0929 22.1817 11.8558 22.237 10.1722C22.2765 8.9946 21.3913 8.60728 21.0119 8.5124ZM18.7672 6.4969H19.4153C19.8104 6.4969 20.0951 6.54434 20.2689 6.64704C20.4428 6.74192 20.5219 6.94744 20.5219 7.24772C20.5219 7.54812 20.427 7.76146 20.2452 7.84045C20.0634 7.93532 19.7789 7.98276 19.4153 7.98276H18.7751V6.48908H18.7672V6.4969V6.4969ZM20.5614 10.6385C20.3716 10.7492 20.0793 10.7966 19.692 10.7966H18.7672V9.20795H19.5576C20.0081 9.20795 20.3321 9.25539 20.5377 9.35809C20.7432 9.46079 20.8381 9.66631 20.8381 9.99043C20.8538 10.3145 20.751 10.52 20.5614 10.6385Z" fill="#FFC10D"/>
<path d="M13.1001 5.03476C10.9897 5.03476 9.9227 6.95538 9.9227 8.60727C9.9227 9.95888 10.7606 12.1798 13.1001 12.1798C15.2104 12.1798 16.2774 10.2592 16.2774 8.60727C16.2696 7.25566 15.4317 5.03476 13.1001 5.03476ZM14.8943 8.60727C14.8943 9.67425 14.2067 10.8283 13.1001 10.8283C12.1753 10.8283 11.3059 9.9035 11.3059 8.60727H11.3138C11.3138 7.54028 12.0014 6.38625 13.108 6.38625C14.0328 6.37842 14.8943 7.3031 14.8943 8.60727Z" fill="#FFC10D"/>
<path d="M38.2265 36.7608C38.2185 36.7608 38.2107 36.7608 38.1948 36.7608C37.8866 37.1007 37.5625 37.4326 37.199 37.733V38.6815L43.5457 45.0283C43.9331 45.4156 44.6207 45.4156 45.008 45.0283C45.4111 44.6252 45.4111 43.9691 45.008 43.566L38.2265 36.7608Z" fill="#FFC10D"/>
<path d="M46.9127 41.669L39.7835 34.524C40.6608 32.9116 41.1824 31.0779 41.1824 29.1098C41.1824 25.6717 39.6412 22.5813 37.2226 20.4946V11.3895C37.2226 11.0418 37.0802 10.7019 36.8352 10.441L26.7657 0.387328C26.5208 0.142314 26.1809 0 25.8174 0H4.00275C1.79762 0 0.00341797 1.7942 0.00341797 3.99933V43.9927C0.00341797 46.2058 1.79762 48 4.00275 48H33.2153C35.4204 48 37.2146 46.2058 37.2146 44.0007V42.4515L41.6724 46.9093C43.1742 48.4585 45.648 48.253 46.9048 46.9093C48.3591 45.4628 48.3591 43.1154 46.9127 41.669ZM45.0316 45.0282C44.6364 45.4155 43.9567 45.4155 43.5693 45.0282L37.2226 38.6814V37.7329C37.5703 37.4325 37.9023 37.1005 38.2184 36.7607C38.2263 36.7607 38.2342 36.7607 38.25 36.7607L45.0553 43.5659C45.4267 43.9612 45.4267 44.6171 45.0316 45.0282ZM38.503 29.1178C38.503 33.9391 34.5827 37.8594 29.7614 37.8594C24.9401 37.8594 21.0197 33.9391 21.0197 29.1178C21.0197 24.2965 24.9479 20.3761 29.7614 20.3761C34.5828 20.3682 38.503 24.2885 38.503 29.1178ZM27.1531 4.55257L32.6622 10.0616H27.1531V4.55257ZM34.5432 43.9927C34.5432 44.7278 33.9504 45.3284 33.2075 45.3284H4.00275C3.2677 45.3284 2.66703 44.7357 2.66703 43.9927V3.99933C2.66703 3.26429 3.25976 2.66361 4.00275 2.66361H24.4816V11.3815C24.4816 11.7293 24.6239 12.0691 24.8689 12.33C25.1139 12.5751 25.4538 12.7174 25.8174 12.7174H34.5353V18.7639C33.081 18.0841 31.4686 17.6969 29.7535 17.6969C23.462 17.6969 18.3483 22.8186 18.3483 29.1021C18.3483 35.3936 23.47 40.5074 29.7535 40.5074C31.4608 40.5074 33.081 40.1201 34.5353 39.4404V43.993H34.5432V43.9927Z" fill="#6C584C"/>
<path d="M66.84 19.04V29.22C66.84 30.5 66.48 31.4933 65.76 32.2C65.0533 32.8933 64.0133 33.24 62.64 33.24C61.3333 33.24 60.3533 32.9067 59.7 32.24C59.06 31.5733 58.64 30.6267 58.44 29.4L61.04 28.86C61.1333 29.5667 61.3 30.0533 61.54 30.32C61.78 30.5867 62.1333 30.72 62.6 30.72C63.0267 30.72 63.36 30.6 63.6 30.36C63.8533 30.12 63.98 29.6867 63.98 29.06V21.34H60.24V19.04H66.84ZM73.6972 33.24C72.2305 33.24 71.1172 32.7933 70.3572 31.9C69.6105 31.0067 69.2372 29.6267 69.2372 27.76C69.2372 25.8933 69.6105 24.5133 70.3572 23.62C71.1172 22.7133 72.2305 22.26 73.6972 22.26C75.1639 22.26 76.2705 22.7133 77.0172 23.62C77.7772 24.5133 78.1572 25.8933 78.1572 27.76C78.1572 29.6267 77.7772 31.0067 77.0172 31.9C76.2705 32.7933 75.1639 33.24 73.6972 33.24ZM73.6972 31.02C74.7239 31.02 75.2372 30.42 75.2372 29.22V26.28C75.2372 25.08 74.7239 24.48 73.6972 24.48C72.6705 24.48 72.1572 25.08 72.1572 26.28V29.22C72.1572 30.42 72.6705 31.02 73.6972 31.02ZM80.4934 18.2H83.2934V24.24H83.6134C83.6668 23.96 83.7668 23.7 83.9134 23.46C84.0734 23.22 84.2601 23.0133 84.4734 22.84C84.6868 22.6533 84.9268 22.5133 85.1934 22.42C85.4601 22.3133 85.7334 22.26 86.0134 22.26C87.2268 22.26 88.1134 22.72 88.6734 23.64C89.2468 24.56 89.5334 25.9333 89.5334 27.76C89.5334 29.5867 89.2534 30.96 88.6934 31.88C88.1334 32.7867 87.2401 33.24 86.0134 33.24C85.7334 33.24 85.4601 33.1867 85.1934 33.08C84.9268 32.9867 84.6868 32.8533 84.4734 32.68C84.2601 32.4933 84.0734 32.28 83.9134 32.04C83.7668 31.8 83.6668 31.54 83.6134 31.26H83.2934V33H80.4934V18.2ZM84.8934 30.96C85.4134 30.96 85.8268 30.8 86.1334 30.48C86.4534 30.1467 86.6134 29.68 86.6134 29.08V26.42C86.6134 25.82 86.4534 25.36 86.1334 25.04C85.8268 24.7067 85.4134 24.54 84.8934 24.54C84.3868 24.54 83.9934 24.66 83.7134 24.9C83.4334 25.1267 83.2934 25.4733 83.2934 25.94V29.56C83.2934 30.0267 83.4334 30.38 83.7134 30.62C83.9934 30.8467 84.3868 30.96 84.8934 30.96ZM95.2895 33.24C93.5695 33.24 92.1962 32.62 91.1695 31.38L92.8295 29.72C93.4695 30.6267 94.3095 31.08 95.3495 31.08C96.2429 31.08 96.6895 30.72 96.6895 30C96.6895 29.72 96.6162 29.5067 96.4695 29.36C96.3362 29.2 96.1095 29.0867 95.7895 29.02L94.7295 28.82C93.5962 28.6067 92.7762 28.2533 92.2695 27.76C91.7762 27.2533 91.5295 26.54 91.5295 25.62C91.5295 24.5133 91.8562 23.68 92.5095 23.12C93.1629 22.5467 94.1162 22.26 95.3695 22.26C96.2095 22.26 96.9362 22.3933 97.5495 22.66C98.1762 22.9133 98.7229 23.3067 99.1895 23.84L97.5895 25.48C96.9895 24.7733 96.2562 24.42 95.3895 24.42C94.5762 24.42 94.1695 24.78 94.1695 25.5C94.1695 25.7933 94.2429 26.0133 94.3895 26.16C94.5362 26.3067 94.7762 26.4133 95.1095 26.48L96.2095 26.68C97.3162 26.88 98.1095 27.22 98.5895 27.7C99.0829 28.1667 99.3295 28.84 99.3295 29.72C99.3295 30.8533 98.9762 31.7267 98.2695 32.34C97.5629 32.94 96.5695 33.24 95.2895 33.24ZM101.731 33V19.04H110.131V21.54H104.591V24.7H109.291V27.18H104.591V33H101.731ZM114.058 21.22C113.484 21.22 113.064 21.1 112.798 20.86C112.544 20.6067 112.418 20.2667 112.418 19.84V19.4C112.418 18.9733 112.544 18.64 112.798 18.4C113.064 18.1467 113.484 18.02 114.058 18.02C114.631 18.02 115.044 18.1467 115.298 18.4C115.564 18.64 115.698 18.9733 115.698 19.4V19.84C115.698 20.2667 115.564 20.6067 115.298 20.86C115.044 21.1 114.631 21.22 114.058 21.22ZM112.658 22.5H115.458V33H112.658V22.5ZM118.392 33V22.5H121.192V24.28H121.512C121.592 24 121.699 23.74 121.832 23.5C121.965 23.26 122.132 23.0467 122.332 22.86C122.532 22.6733 122.765 22.5267 123.032 22.42C123.299 22.3133 123.605 22.26 123.952 22.26C124.899 22.26 125.619 22.58 126.112 23.22C126.619 23.8467 126.872 24.7267 126.872 25.86V33H124.072V26.4C124.072 25.16 123.639 24.54 122.772 24.54C122.345 24.54 121.972 24.6733 121.652 24.94C121.345 25.1933 121.192 25.5533 121.192 26.02V33H118.392ZM135.453 31.26H135.133C135.066 31.54 134.959 31.8 134.813 32.04C134.666 32.28 134.486 32.4933 134.273 32.68C134.059 32.8533 133.819 32.9867 133.553 33.08C133.286 33.1867 133.013 33.24 132.733 33.24C131.506 33.24 130.613 32.7867 130.053 31.88C129.493 30.96 129.213 29.5867 129.213 27.76C129.213 25.9333 129.493 24.56 130.053 23.64C130.626 22.72 131.519 22.26 132.733 22.26C133.013 22.26 133.286 22.3133 133.553 22.42C133.819 22.5133 134.059 22.6533 134.273 22.84C134.486 23.0133 134.666 23.22 134.813 23.46C134.959 23.7 135.066 23.96 135.133 24.24H135.453V18.2H138.253V33H135.453V31.26ZM133.853 30.96C134.359 30.96 134.753 30.8467 135.033 30.62C135.313 30.38 135.453 30.0267 135.453 29.56V25.94C135.453 25.4733 135.313 25.1267 135.033 24.9C134.753 24.66 134.359 24.54 133.853 24.54C133.333 24.54 132.913 24.7067 132.593 25.04C132.286 25.36 132.133 25.82 132.133 26.42V29.08C132.133 29.68 132.286 30.1467 132.593 30.48C132.913 30.8 133.333 30.96 133.853 30.96ZM145.329 33.24C143.889 33.24 142.735 32.7867 141.869 31.88C141.015 30.96 140.589 29.5867 140.589 27.76C140.589 25.8933 140.962 24.5133 141.709 23.62C142.469 22.7133 143.582 22.26 145.049 22.26C146.515 22.26 147.622 22.7133 148.369 23.62C149.129 24.5133 149.509 25.8933 149.509 27.76V28.44H143.509V29.1C143.509 29.6867 143.689 30.16 144.049 30.52C144.409 30.8667 144.902 31.04 145.529 31.04C146.049 31.04 146.489 30.9267 146.849 30.7C147.222 30.46 147.562 30.1333 147.869 29.72L149.289 31.38C148.862 31.9533 148.315 32.4067 147.649 32.74C146.995 33.0733 146.222 33.24 145.329 33.24ZM145.049 24.36C144.022 24.36 143.509 24.96 143.509 26.16V26.8H146.589V26.16C146.589 24.96 146.075 24.36 145.049 24.36ZM151.845 33V22.5H154.645V24.74H154.965C155.005 24.4467 155.072 24.1667 155.165 23.9C155.258 23.62 155.385 23.38 155.545 23.18C155.718 22.9667 155.932 22.8 156.185 22.68C156.438 22.56 156.738 22.5 157.085 22.5H157.585V25.34H156.865C156.105 25.34 155.545 25.4467 155.185 25.66C154.825 25.8733 154.645 26.28 154.645 26.88V33H151.845Z" fill="#6C584C"/>
</svg>
